<?xml version="1.0" encoding="utf-8"?>
<!-- Generated by Mocodo 4.2.1 -->
<svg width="771" height="379" viewBox="0 0 771 379" xmlns="http://www.w3.org/2000/svg">
<rect x="0" y="0" width="771" height="379" fill="#f7f7f7" stroke="none" stroke-width="0"/>

<!-- Association SE_LOCOMOTIONNE -->
<g>
	<line x1="343" y1="227" x2="182" y2="109" stroke="#de77ae" stroke-width="2"/>
	<line x1="51" y1="109" x2="182" y2="109" stroke="#de77ae" stroke-width="2"/>
	<g>
		<path d="M225 84 a14 14 90 0 1 14 14 V109 h-114 V98 a14 14 90 0 1 14 -14" fill="#f1b6da" stroke="#f1b6da" stroke-width="0"/>
		<path d="M239 109 v11 a14 14 90 0 1 -14 14 H139 a14 14 90 0 1 -14 -14 V109 H114" fill="#fde0ef" stroke="#fde0ef" stroke-width="0"/>
		<rect x="125" y="84" width="114" height="50" fill="none" rx="14" stroke="#de77ae" stroke-width="2"/>
		<line x1="125" y1="109" x2="239" y2="109" stroke="#de77ae" stroke-width="1"/>
		<text x="133" y="101.75" fill="#000000" font-family="Verdana" font-size="12">se locomotionne</text>
	</g>
	<text x="277" y="209.87" fill="#4d9221" font-family="Verdana" font-size="12">1,N</text>
	<text x="98" y="126" fill="#4d9221" font-family="Verdana" font-size="12">0,N</text>
</g>

<!-- Association VIVRE_SUR_LE_CONTINENT -->
<g>
	<line x1="343" y1="227" x2="343" y2="109" stroke="#de77ae" stroke-width="2"/>
	<line x1="343" y1="34" x2="343" y2="109" stroke="#de77ae" stroke-width="2"/>
	<g>
		<path d="M401 84 a14 14 90 0 1 14 14 V109 h-144 V98 a14 14 90 0 1 14 -14" fill="#f1b6da" stroke="#f1b6da" stroke-width="0"/>
		<path d="M415 109 v11 a14 14 90 0 1 -14 14 H285 a14 14 90 0 1 -14 -14 V109 H144" fill="#fde0ef" stroke="#fde0ef" stroke-width="0"/>
		<rect x="271" y="84" width="144" height="50" fill="none" rx="14" stroke="#de77ae" stroke-width="2"/>
		<line x1="271" y1="109" x2="415" y2="109" stroke="#de77ae" stroke-width="1"/>
		<text x="279" y="101.75" fill="#000000" font-family="Verdana" font-size="12">vivre sur le continent</text>
	</g>
	<text x="348" y="151" fill="#4d9221" font-family="Verdana" font-size="12">1,1</text>
	<text x="348" y="76" fill="#4d9221" font-family="Verdana" font-size="12">0,N</text>
</g>

<!-- Association VIVRE_DANS_L_ENVIRONNEMENT -->
<g>
	<line x1="343" y1="227" x2="537" y2="109" stroke="#de77ae" stroke-width="2"/>
	<line x1="537" y1="34" x2="537" y2="109" stroke="#de77ae" stroke-width="2"/>
	<g>
		<path d="M613 84 a14 14 90 0 1 14 14 V109 h-180 V98 a14 14 90 0 1 14 -14" fill="#f1b6da" stroke="#f1b6da" stroke-width="0"/>
		<path d="M627 109 v11 a14 14 90 0 1 -14 14 H461 a14 14 90 0 1 -14 -14 V109 H180" fill="#fde0ef" stroke="#fde0ef" stroke-width="0"/>
		<rect x="447" y="84" width="180" height="50" fill="none" rx="14" stroke="#de77ae" stroke-width="2"/>
		<line x1="447" y1="109" x2="627" y2="109" stroke="#de77ae" stroke-width="1"/>
		<text x="454" y="101.75" fill="#000000" font-family="Verdana" font-size="12">vivre dans l environnement</text>
	</g>
	<text x="387" y="215.57" fill="#4d9221" font-family="Verdana" font-size="12">1,N</text>
	<text x="542" y="76" fill="#4d9221" font-family="Verdana" font-size="12">0,N</text>
</g>

<!-- Association ETRE_DE_LA_FAMILLE -->
<g>
	<line x1="343" y1="227" x2="182" y2="227" stroke="#de77ae" stroke-width="2"/>
	<line x1="51" y1="227" x2="182" y2="227" stroke="#de77ae" stroke-width="2"/>
	<g>
		<path d="M227 202 a14 14 90 0 1 14 14 V227 h-118 V216 a14 14 90 0 1 14 -14" fill="#f1b6da" stroke="#f1b6da" stroke-width="0"/>
		<path d="M241 227 v11 a14 14 90 0 1 -14 14 H137 a14 14 90 0 1 -14 -14 V227 H118" fill="#fde0ef" stroke="#fde0ef" stroke-width="0"/>
		<rect x="123" y="202" width="118" height="50" fill="none" rx="14" stroke="#de77ae" stroke-width="2"/>
		<line x1="123" y1="227" x2="241" y2="227" stroke="#de77ae" stroke-width="1"/>
		<text x="131" y="219.75" fill="#000000" font-family="Verdana" font-size="12">etre de la famille</text>
	</g>
	<text x="278" y="244" fill="#4d9221" font-family="Verdana" font-size="12">1,1</text>
	<text x="86" y="244" fill="#4d9221" font-family="Verdana" font-size="12">0,N</text>
</g>

<!-- Association POSSEDER_LE_REGIME -->
<g>
	<line x1="343" y1="227" x2="537" y2="227" stroke="#de77ae" stroke-width="2"/>
	<line x1="698" y1="227" x2="537" y2="227" stroke="#de77ae" stroke-width="2"/>
	<g>
		<path d="M588 202 a14 14 90 0 1 14 14 V227 h-130 V216 a14 14 90 0 1 14 -14" fill="#f1b6da" stroke="#f1b6da" stroke-width="0"/>
		<path d="M602 227 v11 a14 14 90 0 1 -14 14 H486 a14 14 90 0 1 -14 -14 V227 H130" fill="#fde0ef" stroke="#fde0ef" stroke-width="0"/>
		<rect x="472" y="202" width="130" height="50" fill="none" rx="14" stroke="#de77ae" stroke-width="2"/>
		<line x1="472" y1="227" x2="602" y2="227" stroke="#de77ae" stroke-width="1"/>
		<text x="479" y="219.75" fill="#000000" font-family="Verdana" font-size="12">posseder le regime</text>
	</g>
	<text x="387" y="244" fill="#4d9221" font-family="Verdana" font-size="12">1,1</text>
	<text x="607" y="244" fill="#4d9221" font-family="Verdana" font-size="12">0,N</text>
</g>

<!-- Association ETRE_DE_L_EPOQUE -->
<g>
	<line x1="343" y1="227" x2="343" y2="345" stroke="#de77ae" stroke-width="2"/>
	<line x1="537" y1="345" x2="343" y2="345" stroke="#de77ae" stroke-width="2"/>
	<g>
		<path d="M386 320 a14 14 90 0 1 14 14 V345 h-114 V334 a14 14 90 0 1 14 -14" fill="#f1b6da" stroke="#f1b6da" stroke-width="0"/>
		<path d="M400 345 v11 a14 14 90 0 1 -14 14 H300 a14 14 90 0 1 -14 -14 V345 H114" fill="#fde0ef" stroke="#fde0ef" stroke-width="0"/>
		<rect x="286" y="320" width="114" height="50" fill="none" rx="14" stroke="#de77ae" stroke-width="2"/>
		<line x1="286" y1="345" x2="400" y2="345" stroke="#de77ae" stroke-width="1"/>
		<text x="293" y="337.75" fill="#000000" font-family="Verdana" font-size="12">etre de l epoque</text>
	</g>
	<text x="348" y="312" fill="#4d9221" font-family="Verdana" font-size="12">1,1</text>
	<text x="479" y="362" fill="#4d9221" font-family="Verdana" font-size="12">0,N</text>
</g>

<!-- Entity CONTINENTS -->
<g>
	<g>
		<rect x="305" y="9" width="76" height="25" fill="#b8e186" stroke="none" stroke-width="0" opacity="1"/>
		<rect x="305" y="34" width="76" height="25" fill="#e6f5d0" stroke="none" stroke-width="0" opacity="1"/>
		<rect x="305" y="9" width="76" height="50" fill="none" stroke="#7fbc41" stroke-width="2" opacity="1"/>
		<line x1="305" y1="34" x2="381" y2="34" stroke="#7fbc41" stroke-width="1"/>
	</g>
	<text x="310" y="26.75" fill="#000000" font-family="Verdana" font-size="12">Continents</text>
	<text x="310" y="51.8" fill="#000000" font-family="Verdana" font-size="12">label</text>
	<line x1="310" y1="54" x2="339" y2="54" stroke="#000000" stroke-width="1"/>
</g>

<!-- Entity ENVIRONNEMENTS -->
<g>
	<g>
		<rect x="482" y="9" width="110" height="25" fill="#b8e186" stroke="none" stroke-width="0" opacity="1"/>
		<rect x="482" y="34" width="110" height="25" fill="#e6f5d0" stroke="none" stroke-width="0" opacity="1"/>
		<rect x="482" y="9" width="110" height="50" fill="none" stroke="#7fbc41" stroke-width="2" opacity="1"/>
		<line x1="482" y1="34" x2="592" y2="34" stroke="#7fbc41" stroke-width="1"/>
	</g>
	<text x="488" y="26.75" fill="#000000" font-family="Verdana" font-size="12">Environnements</text>
	<text x="487" y="51.8" fill="#000000" font-family="Verdana" font-size="12">label</text>
</g>

<!-- Entity LOCOMOTIONS -->
<g>
	<g>
		<rect x="9" y="84" width="84" height="25" fill="#b8e186" stroke="none" stroke-width="0" opacity="1"/>
		<rect x="9" y="109" width="84" height="25" fill="#e6f5d0" stroke="none" stroke-width="0" opacity="1"/>
		<rect x="9" y="84" width="84" height="50" fill="none" stroke="#7fbc41" stroke-width="2" opacity="1"/>
		<line x1="9" y1="109" x2="93" y2="109" stroke="#7fbc41" stroke-width="1"/>
	</g>
	<text x="15" y="101.75" fill="#000000" font-family="Verdana" font-size="12">locomotions</text>
	<text x="14" y="126.8" fill="#000000" font-family="Verdana" font-size="12">label</text>
</g>

<!-- Entity FAMILLES -->
<g>
	<g>
		<rect x="21" y="202" width="60" height="25" fill="#b8e186" stroke="none" stroke-width="0" opacity="1"/>
		<rect x="21" y="227" width="60" height="25" fill="#e6f5d0" stroke="none" stroke-width="0" opacity="1"/>
		<rect x="21" y="202" width="60" height="50" fill="none" stroke="#7fbc41" stroke-width="2" opacity="1"/>
		<line x1="21" y1="227" x2="81" y2="227" stroke="#7fbc41" stroke-width="1"/>
	</g>
	<text x="26" y="219.75" fill="#000000" font-family="Verdana" font-size="12">Familles</text>
	<text x="26" y="244.8" fill="#000000" font-family="Verdana" font-size="12">label</text>
</g>

<!-- Entity DINOSAURES -->
<g>
	<g>
		<rect x="304" y="159" width="78" height="25" fill="#b8e186" stroke="none" stroke-width="0" opacity="1"/>
		<rect x="304" y="184" width="78" height="111" fill="#e6f5d0" stroke="none" stroke-width="0" opacity="1"/>
		<rect x="304" y="159" width="78" height="136" fill="none" stroke="#7fbc41" stroke-width="2" opacity="1"/>
		<line x1="304" y1="184" x2="382" y2="184" stroke="#7fbc41" stroke-width="1"/>
	</g>
	<text x="309" y="176.75" fill="#000000" font-family="Verdana" font-size="12">Dinosaures</text>
	<text x="309" y="201.8" fill="#000000" font-family="Verdana" font-size="12">nom</text>
	<line x1="309" y1="204" x2="337" y2="204" stroke="#000000" stroke-width="1"/>
	<text x="309" y="218.8" fill="#000000" font-family="Verdana" font-size="12">image</text>
	<text x="309" y="235.8" fill="#000000" font-family="Verdana" font-size="12">hauteur</text>
	<text x="309" y="252.8" fill="#000000" font-family="Verdana" font-size="12">longueur</text>
	<text x="309" y="269.8" fill="#000000" font-family="Verdana" font-size="12">poids</text>
	<text x="309" y="286.8" fill="#000000" font-family="Verdana" font-size="12">descripton</text>
</g>

<!-- Entity REGIME_ALIMENTAIRE -->
<g>
	<g>
		<rect x="634" y="202" width="128" height="25" fill="#b8e186" stroke="none" stroke-width="0" opacity="1"/>
		<rect x="634" y="227" width="128" height="25" fill="#e6f5d0" stroke="none" stroke-width="0" opacity="1"/>
		<rect x="634" y="202" width="128" height="50" fill="none" stroke="#7fbc41" stroke-width="2" opacity="1"/>
		<line x1="634" y1="227" x2="762" y2="227" stroke="#7fbc41" stroke-width="1"/>
	</g>
	<text x="639" y="219.75" fill="#000000" font-family="Verdana" font-size="12">Régime alimentaire</text>
	<text x="639" y="244.8" fill="#000000" font-family="Verdana" font-size="12">label</text>
	<line x1="639" y1="247" x2="668" y2="247" stroke="#000000" stroke-width="1"/>
</g>

<!-- Entity EPOQUES -->
<g>
	<g>
		<rect x="506" y="320" width="62" height="25" fill="#b8e186" stroke="none" stroke-width="0" opacity="1"/>
		<rect x="506" y="345" width="62" height="25" fill="#e6f5d0" stroke="none" stroke-width="0" opacity="1"/>
		<rect x="506" y="320" width="62" height="50" fill="none" stroke="#7fbc41" stroke-width="2" opacity="1"/>
		<line x1="506" y1="345" x2="568" y2="345" stroke="#7fbc41" stroke-width="1"/>
	</g>
	<text x="511" y="337.75" fill="#000000" font-family="Verdana" font-size="12">Epoques</text>
	<text x="511" y="362.8" fill="#000000" font-family="Verdana" font-size="12">label</text>
	<line x1="511" y1="365" x2="540" y2="365" stroke="#000000" stroke-width="1"/>
</g>
</svg>